<?plantuml 1.2026.2beta3?><svg xmlns="http://www.w3.org/2000/svg" xmlns:xlink="http://www.w3.org/1999/xlink" contentStyleType="text/css" data-diagram-type="DESCRIPTION" height="421px" preserveAspectRatio="none" style="width:175px;height:421px;background:#FFFFFF;" version="1.1" viewBox="0 0 175 421" width="175px" zoomAndPan="magnify"><defs/><g><!--cluster Redis--><g class="cluster" data-qualified-name="Redis" data-source-line="4" id="ent0002"><path d="M8.5,6 L44,6 A3.75,3.75 0 0 1 46.5,8.5 L53.5,16 L165.5,16 A2.5,2.5 0 0 1 168,18.5 L168,411.5 A2.5,2.5 0 0 1 165.5,414 L8.5,414 A2.5,2.5 0 0 1 6,411.5 L6,8.5 A2.5,2.5 0 0 1 8.5,6" fill="none" style="stroke:#000000;stroke-width:1.5;"/><line style="stroke:#000000;stroke-width:1.5;" x1="6" x2="53.5" y1="16" y2="16"/><text fill="#000000" font-family="Arial" font-size="14" font-weight="bold" lengthAdjust="spacing" textLength="0" x="10" y="8">Redis</text></g><!--entity MR--><g class="entity" data-qualified-name="Redis.MR" data-source-line="5" id="ent0003"><rect fill="#D5E8D4" height="40" rx="2.5" ry="2.5" style="stroke:#181818;stroke-width:0.5;" width="20" x="62" y="22"/><text fill="#000000" font-family="Arial" font-size="14" lengthAdjust="spacing" textLength="0" x="72" y="32">mocks:registry</text><text fill="#000000" font-family="Arial" font-size="14" lengthAdjust="spacing" textLength="0" x="72" y="42">(Set)</text></g><!--entity M--><g class="entity" data-qualified-name="Redis.M" data-source-line="6" id="ent0004"><rect fill="#DAE8FC" height="40" rx="2.5" ry="2.5" style="stroke:#181818;stroke-width:0.5;" width="20" x="62" y="134"/><text fill="#000000" font-family="Arial" font-size="14" lengthAdjust="spacing" textLength="0" x="72" y="144">mocks:{filename}</text><text fill="#000000" font-family="Arial" font-size="14" lengthAdjust="spacing" textLength="0" x="72" y="154">(String/JSON)</text></g><!--entity HR--><g class="entity" data-qualified-name="Redis.HR" data-source-line="7" id="ent0005"><rect fill="#D5E8D4" height="40" rx="2.5" ry="2.5" style="stroke:#181818;stroke-width:0.5;" width="20" x="131" y="134"/><text fill="#000000" font-family="Arial" font-size="14" lengthAdjust="spacing" textLength="0" x="141" y="144">hosts:registry</text><text fill="#000000" font-family="Arial" font-size="14" lengthAdjust="spacing" textLength="0" x="141" y="154">(Set)</text></g><!--entity H--><g class="entity" data-qualified-name="Redis.H" data-source-line="8" id="ent0006"><rect fill="#DAE8FC" height="40" rx="2.5" ry="2.5" style="stroke:#181818;stroke-width:0.5;" width="20" x="77" y="246"/><text fill="#000000" font-family="Arial" font-size="14" lengthAdjust="spacing" textLength="0" x="87" y="256">hosts:{hostname}</text><text fill="#000000" font-family="Arial" font-size="14" lengthAdjust="spacing" textLength="0" x="87" y="266">(String/JSON)</text></g><!--entity AR--><g class="entity" data-qualified-name="Redis.AR" data-source-line="9" id="ent0007"><rect fill="#D5E8D4" height="40" rx="2.5" ry="2.5" style="stroke:#181818;stroke-width:0.5;" width="20" x="132" y="246"/><text fill="#000000" font-family="Arial" font-size="14" lengthAdjust="spacing" textLength="0" x="142" y="256">accounts:registry</text><text fill="#000000" font-family="Arial" font-size="14" lengthAdjust="spacing" textLength="0" x="142" y="266">(Set)</text></g><!--entity A--><g class="entity" data-qualified-name="Redis.A" data-source-line="10" id="ent0008"><rect fill="#DAE8FC" height="40" rx="2.5" ry="2.5" style="stroke:#181818;stroke-width:0.5;" width="20" x="104" y="358"/><text fill="#000000" font-family="Arial" font-size="14" lengthAdjust="spacing" textLength="0" x="114" y="368">accounts:{uuid}</text><text fill="#000000" font-family="Arial" font-size="14" lengthAdjust="spacing" textLength="0" x="114" y="378">(String/JSON)</text></g><!--entity RL--><g class="entity" data-qualified-name="Redis.RL" data-source-line="11" id="ent0009"><rect fill="#FFF2CC" height="40" rx="2.5" ry="2.5" style="stroke:#181818;stroke-width:0.5;" width="20" x="22" y="246"/><text fill="#000000" font-family="Arial" font-size="14" lengthAdjust="spacing" textLength="0" x="32" y="256">rate:{filename}:{window}</text><text fill="#000000" font-family="Arial" font-size="14" lengthAdjust="spacing" textLength="0" x="32" y="266">(String/Integer)</text></g><!--entity SG--><g class="entity" data-qualified-name="Redis.SG" data-source-line="12" id="ent0010"><rect fill="#F8CECC" height="40" rx="2.5" ry="2.5" style="stroke:#181818;stroke-width:0.5;" width="20" x="117" y="22"/><text fill="#000000" font-family="Arial" font-size="14" lengthAdjust="spacing" textLength="0" x="127" y="32">settings:global</text><text fill="#000000" font-family="Arial" font-size="14" lengthAdjust="spacing" textLength="0" x="127" y="42">(String/JSON)</text></g><!--link MR to M--><g class="link" data-entity-1="ent0003" data-entity-2="ent0004" data-link-type="dependency" data-source-line="14" id="lnk11"><path d="M72,62.41 C72,82.52 72,107.75 72,127.78" fill="none" id="MR-to-M" style="stroke:#181818;stroke-width:1;"/><polygon fill="#181818" points="72,133.78,76,124.78,72,128.78,68,124.78,72,133.78" style="stroke:#181818;stroke-width:1;"/><text fill="#000000" font-family="Arial" font-size="13" lengthAdjust="spacing" textLength="0" x="73" y="93">SMEMBERS &#8594; GET</text></g><!--link M to H--><g class="link" data-entity-1="ent0004" data-entity-2="ent0006" data-link-type="dependency" data-source-line="15" id="lnk12"><path d="M74.65,174.41 C77.39,194.52 80.8397,219.805 83.5697,239.835" fill="none" id="M-to-H" style="stroke:#181818;stroke-width:1;"/><polygon fill="#181818" points="84.38,245.78,87.1279,236.3223,83.7048,240.8258,79.2012,237.4026,84.38,245.78" style="stroke:#181818;stroke-width:1;"/><text fill="#000000" font-family="Arial" font-size="13" lengthAdjust="spacing" textLength="0" x="80" y="205">host_id &#8594; GET</text></g><!--link H to A--><g class="link" data-entity-1="ent0006" data-entity-2="ent0008" data-link-type="dependency" data-source-line="16" id="lnk13"><path d="M89.8,286.38 C91.71,298.44 94.53,314.23 98,328 C100.49,337.89 101.997,343.0133 105.057,351.9533" fill="none" id="H-to-A" style="stroke:#181818;stroke-width:1;"/><polygon fill="#181818" points="107,357.63,107.8699,347.8196,105.3808,352.8994,100.301,350.4103,107,357.63" style="stroke:#181818;stroke-width:1;"/><text fill="#000000" font-family="Arial" font-size="13" lengthAdjust="spacing" textLength="0" x="99" y="317">account_id &#8594; GET</text></g><!--link HR to H--><g class="link" data-entity-1="ent0005" data-entity-2="ent0006" data-link-type="dependency" data-source-line="17" id="lnk14"><path d="M131.47,174.41 C121.6,194.52 108.9156,220.3647 99.0756,240.3947" fill="none" id="HR-to-H" style="stroke:#181818;stroke-width:1;"/><polygon fill="#181818" points="96.43,245.78,103.9885,239.4658,98.6346,241.2923,96.8082,235.9384,96.43,245.78" style="stroke:#181818;stroke-width:1;"/><text fill="#000000" font-family="Arial" font-size="13" lengthAdjust="spacing" textLength="0" x="116" y="205">SMEMBERS &#8594; GET</text></g><!--link AR to A--><g class="link" data-entity-1="ent0007" data-entity-2="ent0008" data-link-type="dependency" data-source-line="18" id="lnk15"><path d="M137.06,286.41 C131.94,306.52 125.4705,331.9355 120.3705,351.9655" fill="none" id="AR-to-A" style="stroke:#181818;stroke-width:1;"/><polygon fill="#181818" points="118.89,357.78,124.987,350.0453,120.1237,352.9346,117.2344,348.0713,118.89,357.78" style="stroke:#181818;stroke-width:1;"/><text fill="#000000" font-family="Arial" font-size="13" lengthAdjust="spacing" textLength="0" x="129" y="317">SMEMBERS &#8594; GET</text></g><!--link M to RL--><g class="link" data-entity-1="ent0004" data-entity-2="ent0009" data-link-type="dependency" data-source-line="19" id="lnk16"><path d="M64.94,174.41 C57.63,194.52 48.3196,220.1109 41.0396,240.1409" fill="none" id="M-to-RL" style="stroke:#181818;stroke-width:1;"/><polygon fill="#181818" points="38.99,245.78,45.8237,238.6877,40.698,241.0808,38.3049,235.955,38.99,245.78" style="stroke:#181818;stroke-width:1;"/><text fill="#000000" font-family="Arial" font-size="13" lengthAdjust="spacing" textLength="0" x="54" y="205">filename &#8594; INCR/GET</text></g><?plantuml-src VP7HIiCm68Nl-nG_tOrUZ84eZ5u8jMlNYQkGUZcGhCbYM9QC96L8sQqFu2Fw9ARjtAPhpKsXvtp_-NDYrbnkiSOR87I5Is4J9Ms6DnH2pR7mp55VucBDj2ebYPHG6WP9SpnlwmJCAFY84cvyg3nmHzF2Oic4-xzHnTe4cZ9kh7vVoAkSsciVi84vWi7aBXvFRhkPQiK5bMwRVKrPpIKRFURFsO5sS1YFa-Wl_AQCxGvCUmDRfge_lO5fNo0k2bTCJsROctd4ghBaf3Cox8lKsDApVe9gnoLHkxCXCsafexgTWvwQ1xk9BWOPQgspcu09jSIYQubywk1n53kueTsp3OVthdy889_7yuSOvV3ryGdJ-AKrG6D8QqFTw2idl_IqrSDQFvHmOK6d4PqP8JhD-6y9T_C0Vdfg3BCiGgFQjVy6?></g></svg>